<svg id="mermaid-1622033829635" width="100%" xmlns="http://www.w3.org/2000/svg" xmlns:xlink="http://www.w3.org/1999/xlink" height="289.375" style="max-width: 345.33984375px;" viewBox="-20 -20 345.33984375 289.375"><style>#mermaid-1622033829635{font-family:"trebuchet ms",verdana,arial,sans-serif;font-size:16px;fill:#333;}#mermaid-1622033829635 .error-icon{fill:#552222;}#mermaid-1622033829635 .error-text{fill:#552222;stroke:#552222;}#mermaid-1622033829635 .edge-thickness-normal{stroke-width:2px;}#mermaid-1622033829635 .edge-thickness-thick{stroke-width:3.5px;}#mermaid-1622033829635 .edge-pattern-solid{stroke-dasharray:0;}#mermaid-1622033829635 .edge-pattern-dashed{stroke-dasharray:3;}#mermaid-1622033829635 .edge-pattern-dotted{stroke-dasharray:2;}#mermaid-1622033829635 .marker{fill:#333333;stroke:#333333;}#mermaid-1622033829635 .marker.cross{stroke:#333333;}#mermaid-1622033829635 svg{font-family:"trebuchet ms",verdana,arial,sans-serif;font-size:16px;}#mermaid-1622033829635 g.classGroup text{fill:#9370DB;fill:#131300;stroke:none;font-family:"trebuchet ms",verdana,arial,sans-serif;font-size:10px;}#mermaid-1622033829635 g.classGroup text .title{font-weight:bolder;}#mermaid-1622033829635 .classTitle{font-weight:bolder;}#mermaid-1622033829635 .node rect,#mermaid-1622033829635 .node circle,#mermaid-1622033829635 .node ellipse,#mermaid-1622033829635 .node polygon,#mermaid-1622033829635 .node path{fill:#ECECFF;stroke:#9370DB;stroke-width:1px;}#mermaid-1622033829635 .divider{stroke:#9370DB;stroke:1;}#mermaid-1622033829635 g.clickable{cursor:pointer;}#mermaid-1622033829635 g.classGroup rect{fill:#ECECFF;stroke:#9370DB;}#mermaid-1622033829635 g.classGroup line{stroke:#9370DB;stroke-width:1;}#mermaid-1622033829635 .classLabel .box{stroke:none;stroke-width:0;fill:#ECECFF;opacity:0.5;}#mermaid-1622033829635 .classLabel .label{fill:#9370DB;font-size:10px;}#mermaid-1622033829635 .relation{stroke:#333333;stroke-width:1;fill:none;}#mermaid-1622033829635 .dashed-line{stroke-dasharray:3;}#mermaid-1622033829635 #compositionStart,#mermaid-1622033829635 .composition{fill:#333333 !important;stroke:#333333 !important;stroke-width:1;}#mermaid-1622033829635 #compositionEnd,#mermaid-1622033829635 .composition{fill:#333333 !important;stroke:#333333 !important;stroke-width:1;}#mermaid-1622033829635 #dependencyStart,#mermaid-1622033829635 .dependency{fill:#333333 !important;stroke:#333333 !important;stroke-width:1;}#mermaid-1622033829635 #dependencyStart,#mermaid-1622033829635 .dependency{fill:#333333 !important;stroke:#333333 !important;stroke-width:1;}#mermaid-1622033829635 #extensionStart,#mermaid-1622033829635 .extension{fill:#333333 !important;stroke:#333333 !important;stroke-width:1;}#mermaid-1622033829635 #extensionEnd,#mermaid-1622033829635 .extension{fill:#333333 !important;stroke:#333333 !important;stroke-width:1;}#mermaid-1622033829635 #aggregationStart,#mermaid-1622033829635 .aggregation{fill:#ECECFF !important;stroke:#333333 !important;stroke-width:1;}#mermaid-1622033829635 #aggregationEnd,#mermaid-1622033829635 .aggregation{fill:#ECECFF !important;stroke:#333333 !important;stroke-width:1;}#mermaid-1622033829635 .edgeTerminals{font-size:11px;}#mermaid-1622033829635:root{--mermaid-font-family:"trebuchet ms",verdana,arial,sans-serif;}</style><g></g><defs><marker id="extensionStart" class="extension" refX="0" refY="7" markerWidth="190" markerHeight="240" orient="auto"><path d="M 1,7 L18,13 V 1 Z"></path></marker></defs><defs><marker id="extensionEnd" refX="19" refY="7" markerWidth="20" markerHeight="28" orient="auto"><path d="M 1,1 V 13 L18,7 Z"></path></marker></defs><defs><marker id="compositionStart" class="extension" refX="0" refY="7" markerWidth="190" markerHeight="240" orient="auto"><path d="M 18,7 L9,13 L1,7 L9,1 Z"></path></marker></defs><defs><marker id="compositionEnd" refX="19" refY="7" markerWidth="20" markerHeight="28" orient="auto"><path d="M 18,7 L9,13 L1,7 L9,1 Z"></path></marker></defs><defs><marker id="aggregationStart" class="extension" refX="0" refY="7" markerWidth="190" markerHeight="240" orient="auto"><path d="M 18,7 L9,13 L1,7 L9,1 Z"></path></marker></defs><defs><marker id="aggregationEnd" refX="19" refY="7" markerWidth="20" markerHeight="28" orient="auto"><path d="M 18,7 L9,13 L1,7 L9,1 Z"></path></marker></defs><defs><marker id="dependencyStart" class="extension" refX="0" refY="7" markerWidth="190" markerHeight="240" orient="auto"><path d="M 5,7 L9,13 L1,7 L9,1 Z"></path></marker></defs><defs><marker id="dependencyEnd" refX="19" refY="7" markerWidth="20" markerHeight="28" orient="auto"><path d="M 18,7 L9,13 L14,7 L9,1 Z"></path></marker></defs><g id="classid-Workout-3602" class="classGroup" transform="translate(62.66796875,10.0625 )"><rect x="0" y="0" width="73.671875" height="99.59375" class=" "></rect><text y="15" x="0"><tspan class="title" x="16.9453125">Workout</tspan></text><line x1="0" y1="21.5" y2="21.5" x2="73.671875"></line><text x="5" y="31.5" fill="white" class="classText"><tspan x="5">id</tspan><tspan x="5" dy="10">date</tspan><tspan x="5" dy="10">coords</tspan><tspan x="5" dy="10">distance</tspan><tspan x="5" dy="10">duration</tspan></text><line x1="0" y1="78" y2="78" x2="73.671875"></line><text x="5" y="93" fill="white" class="classText"><tspan x="5">constructor()</tspan></text></g><g id="classid-Running-3603" class="classGroup" transform="translate(0,169.71875 )"><rect x="0" y="0" width="73.671875" height="79.65625" class=" "></rect><text y="15" x="0"><tspan class="title" x="17.96875">Running</tspan></text><line x1="0" y1="21.5625" y2="21.5625" x2="73.671875"></line><text x="5" y="31.5625" fill="white" class="classText"><tspan x="5">pace</tspan><tspan x="5" dy="10">name</tspan><tspan x="5" dy="10">cadence</tspan></text><line x1="0" y1="58.0625" y2="58.0625" x2="73.671875"></line><text x="5" y="73.0625" fill="white" class="classText"><tspan x="5">constructor()</tspan></text></g><g id="classid-Cycling-3604" class="classGroup" transform="translate(123.671875,169.71875 )"><rect x="0" y="0" width="77" height="79.65625" class=" "></rect><text y="15" x="0"><tspan class="title" x="21.78125">Cycling</tspan></text><line x1="0" y1="21.5625" y2="21.5625" x2="77"></line><text x="5" y="31.5625" fill="white" class="classText"><tspan x="5">speed</tspan><tspan x="5" dy="10">name</tspan><tspan x="5" dy="10">elevationGain</tspan></text><line x1="0" y1="58.0625" y2="58.0625" x2="77"></line><text x="5" y="73.0625" fill="white" class="classText"><tspan x="5">constructor()</tspan></text></g><g id="classid-App-3605" class="classGroup" transform="translate(186.33984375,0 )"><rect x="0" y="0" width="119" height="119.71875" class=" "></rect><text y="15" x="0"><tspan class="title" x="50.5078125">App</tspan></text><line x1="0" y1="21.5625" y2="21.5625" x2="119"></line><text x="5" y="31.5625" fill="white" class="classText"><tspan x="5">workouts</tspan><tspan x="5" dy="10">map</tspan></text><line x1="0" y1="48.125" y2="48.125" x2="119"></line><text x="5" y="63.125" fill="white" class="classText"><tspan x="5">constructor()</tspan><tspan x="5" dy="10">_getPosition()</tspan><tspan x="5" dy="10">_loadMap(position)</tspan><tspan x="5" dy="10">_showForm()</tspan><tspan x="5" dy="10">_toggleElevationField()</tspan><tspan x="5" dy="10">_newWorkout()</tspan></text></g><path d="M62.72931291428834,109.65625L58.41375034524029,115.5C54.098187776192226,121.34375,45.46706263809612,133.03125,41.15150006904806,143.04166666666666C36.8359375,153.05208333333334,36.8359375,161.38541666666666,36.8359375,165.55208333333334L36.8359375,169.71875" id="edge1088" class="relation" marker-start="url(#extensionStart)"></path><path d="M136.27849958571164,109.65625L140.5940621547597,115.5C144.90962472380775,121.34375,153.5407498619039,133.03125,157.85631243095193,143.04166666666666C162.171875,153.05208333333334,162.171875,161.38541666666666,162.171875,165.55208333333334L162.171875,169.71875" id="edge1089" class="relation" marker-start="url(#extensionStart)"></path></svg>